/vscmnt/brussel_pixiu_data/_data_brussel/112/vsc11236/PredSimResults/SUBJ04opt3D/weighted/trackIG/worker_02.mot
version=1
nRows=8
nColumns=50
inDegrees=yes
endheader
                time	         pelvis_tilt	         pelvis_list	     pelvis_rotation	           pelvis_tx	           pelvis_ty	           pelvis_tz	       hip_flexion_r	     hip_adduction_r	      hip_rotation_r	        knee_angle_r	       ankle_angle_r	         mtp_angle_r	       hip_flexion_l	     hip_adduction_l	      hip_rotation_l	        knee_angle_l	       ankle_angle_l	         mtp_angle_l	    lumbar_extension	      lumbar_bending	     lumbar_rotation	 ercspn_r/activation	 intobl_r/activation	 extobl_r/activation	    abd_r/activation	    add_r/activation	hamstrings_r/activation	bifemsh_r/activation	glut_max_r/activation	iliopsoas_r/activation	rect_fem_r/activation	  vasti_r/activation	gastroc_r/activation	 soleus_r/activation	tib_ant_r/activation	 ercspn_l/activation	 intobl_l/activation	 extobl_l/activation	    abd_l/activation	    add_l/activation	hamstrings_l/activation	bifemsh_l/activation	glut_max_l/activation	iliopsoas_l/activation	rect_fem_l/activation	  vasti_l/activation	gastroc_l/activation	 soleus_l/activation	tib_ant_l/activation	
          2.02019379	         -1.40896922	         -0.21598448	         -8.45952231	          1.75756860	          0.88506270	          0.01057578	        -12.09099214	         -0.40946151	         -7.49299124	         -7.02787024	         13.83216813	         18.08044548	         27.98751926	         -2.83110618	         -9.99395113	        -10.57482492	          3.90409174	          0.23019891	        -14.10153138	          4.08810836	          7.80212238	          0.01000000	          0.00999999	          0.00999999	          0.07800004	          0.00999999	          0.02981958	          0.26332877	          0.01897087	          0.01835861	          0.00999999	          0.00999999	          0.25345957	          0.24312462	          0.01224465	          0.04569469	          0.23287040	          0.02299917	          0.00999999	          0.24939710	          0.06738617	          0.01701611	          0.01629305	          0.18368586	          0.03979762	          0.05050735	          0.00999999	          0.00999999	          0.33419895	
          2.03366175	         -1.51909536	         -0.21625951	         -8.26185646	          1.77246733	          0.88273867	          0.01022961	        -12.75337021	         -0.50746552	         -8.13518567	         -7.50883040	         13.69559976	         19.43793747	         27.93914595	         -2.68603391	        -10.17795175	        -11.82656956	          3.72740893	          0.22810863	        -13.61200817	          3.48542544	          7.88004946	          0.02447314	          0.00999999	          0.00999999	          0.06370128	          0.00999999	          0.02435313	          0.21505602	          0.01549318	          0.01499316	          0.00999999	          0.00999999	          0.24581020	          0.24915027	          0.00999999	          0.03731806	          0.22917250	          0.01878302	          0.00999999	          0.30426067	          0.06894651	          0.01389676	          0.01330625	          0.15001304	          0.03250202	          0.04124847	          0.01499316	          0.01835861	          0.32850833	
          2.04712971	         -1.61350698	         -0.16043925	         -8.02269833	          1.78780075	          0.88053755	          0.00983942	        -13.38477796	         -0.66863417	         -8.81344506	         -8.11982239	         13.47657602	         20.86169111	         27.77977546	         -2.53168635	        -10.23168038	        -13.10575127	          3.48060614	          0.22250743	        -13.08110534	          2.79415349	          7.93342297	          0.02325426	          0.00999999	          0.00999999	          0.05202372	          0.00999999	          0.03111445	          0.17563250	          0.01265301	          0.01224465	          0.00999999	          0.00999999	          0.21488737	          0.24651089	          0.00999999	          0.03047701	          0.22317635	          0.01533976	          0.01910613	          0.24848438	          0.07229248	          0.01134926	          0.02164327	          0.12251303	          0.02654383	          0.04484391	          0.01224465	          0.01499316	          0.35178643	
          2.06059767	         -1.69343458	         -0.04648050	         -7.73254227	          1.80337532	          0.87862977	          0.00934919	        -13.92498167	         -0.90136666	         -9.53800419	         -8.94374902	         13.15518456	         22.33600776	         27.57356385	         -2.33535478	        -10.37715961	        -14.28724965	          3.07940552	          0.20810924	        -12.53593265	          2.01815287	          7.95312640	          0.02512915	          0.00999999	          0.00999999	          0.04248686	          0.00999999	          0.03138224	          0.14343600	          0.01033349	          0.00999999	          0.00999999	          0.00999999	          0.17549476	          0.23580462	          0.00999999	          0.02489004	          0.18226423	          0.01252772	          0.02746408	          0.21488973	          0.07760658	          0.01000004	          0.01767568	          0.10005425	          0.02167788	          0.11233099	          0.00999999	          0.01224465	          0.37891966	
          2.07406562	         -1.75929033	          0.11632385	         -7.39753390	          1.81907630	          0.87719071	          0.00874403	        -14.32352209	         -1.20767824	        -10.29919593	        -10.05229515	         12.68451245	         23.86277934	         27.30860747	         -2.10263843	        -10.65643250	        -15.38803827	          2.73734910	          0.18738725	        -11.99512110	          1.17428233	          7.93773689	          0.03797969	          0.00999999	          0.00999999	          0.03469828	          0.00999999	          0.02562943	          0.11714168	          0.00999999	          0.00999999	          0.00999999	          0.00999999	          0.14332351	          0.21724513	          0.00999999	          0.02407019	          0.14885202	          0.01023117	          0.04937069	          0.18902406	          0.07753710	          0.01000005	          0.01443542	          0.08171256	          0.01770395	          0.17809629	          0.00999999	          0.00999999	          0.39395444	
          2.08753358	         -1.81172971	          0.32098433	         -7.02900448	          1.83479168	          0.87640760	          0.00801181	        -14.52171632	         -1.59670246	        -11.08807447	        -11.52694702	         12.00661811	         25.45321692	         26.94416095	         -1.82723304	        -11.03261593	        -16.36320370	          2.59864910	          0.16483241	        -11.47365116	          0.27921060	          7.88791617	          0.06689275	          0.00999999	          0.00999999	          0.02833748	          0.00999999	          0.04553825	          0.09566756	          0.01488793	          0.00999999	          0.00999999	          0.00999999	          0.11704981	          0.17742031	          0.00999999	          0.02939396	          0.12156485	          0.00999999	          0.07631759	          0.16534531	          0.07670466	          0.00999999	          0.02435578	          0.06673322	          0.01445851	          0.21651376	          0.00999999	          0.00999999	          0.39458949	
          2.10100154	         -1.85147328	          0.55974408	         -6.64113545	          1.85038628	          0.87641508	          0.00714943	        -14.45750785	         -2.07973904	        -11.90620749	        -13.45532454	         11.08756147	         27.08599398	         26.47295986	         -1.50021375	        -11.42540456	        -17.19235328	          2.67857231	          0.14969864	        -10.98601508	         -0.65070849	          7.80911284	          0.08568618	          0.00999999	          0.00999999	          0.02314273	          0.00999999	          0.05847161	          0.07813003	          0.02377228	          0.00999999	          0.00999999	          0.00999999	          0.09559254	          0.14489607	          0.00999999	          0.03277826	          0.09927989	          0.00999999	          0.09480080	          0.14943151	          0.07784683	          0.01000001	          0.02300884	          0.05449986	          0.01180801	          0.23018356	          0.00999999	          0.00999999	          0.37881189	
          2.11446950	         -1.87865811	          0.81370752	         -6.24653740	          1.86576516	          0.87721430	          0.00616392	        -14.09398706	         -2.65518606	        -12.75245031	        -15.88373833	          9.89025554	         28.73411548	         25.89710271	         -1.12511718	        -11.75245840	        -17.86440770	          2.95067855	          0.15879048	        -10.54215716	         -1.58884584	          7.70699687	          0.08391113	          0.00999999	          0.00999999	          0.01890026	          0.08613458	          0.09308138	          0.06380743	          0.02016151	          0.00999999	          0.00999999	          0.01224467	          0.07806876	          0.11833409	          0.00999999	          0.03182741	          0.08108015	          0.00999999	          0.10500022	          0.15299336	          0.08033542	          0.01000000	          0.02693607	          0.04450908	          0.00999999	          0.23990259	          0.00999999	          0.00999999	          0.34551305	
